<?xml version="1.0" standalone="no"?>
<!DOCTYPE svg PUBLIC "-//W3C//DTD SVG 20010904//EN"
 "http://www.w3.org/TR/2001/REC-SVG-20010904/DTD/svg10.dtd">
<svg version="1.0" xmlns="http://www.w3.org/2000/svg"
 width="225.000000pt" height="225.000000pt" viewBox="0 0 225.000000 225.000000"
 preserveAspectRatio="xMidYMid meet">
<metadata>
Created by potrace 1.15, written by Peter Selinger 2001-2017
</metadata>
<g transform="translate(0.000000,225.000000) scale(0.100000,-0.100000)"
fill="#000000" stroke="none">
<path d="M154 1860 c-11 -4 -33 -22 -47 -40 -52 -61 -27 -171 46 -201 48 -21
1896 -21 1944 0 45 18 73 67 73 125 0 39 -6 52 -34 84 l-34 37 -964 2 c-530 1
-972 -2 -984 -7z"/>
<path d="M153 1245 c-97 -42 -95 -200 2 -241 51 -21 1889 -21 1940 0 98 41 98
201 0 242 -51 21 -1893 20 -1942 -1z"/>
<path d="M195 643 c-78 -17 -115 -61 -115 -137 0 -39 6 -52 34 -84 l34 -37
977 0 977 0 34 37 c28 32 34 45 34 84 0 55 -27 104 -67 125 -24 12 -176 14
-958 15 -511 1 -939 0 -950 -3z"/>
</g>
</svg>
