<?xml version="1.0" standalone="no"?>
<!DOCTYPE svg PUBLIC "-//W3C//DTD SVG 20010904//EN"
 "http://www.w3.org/TR/2001/REC-SVG-20010904/DTD/svg10.dtd">
<svg version="1.0" xmlns="http://www.w3.org/2000/svg"
 width="64.000000pt" height="64.000000pt" viewBox="0 0 64.000000 64.000000"
 preserveAspectRatio="xMidYMid meet">
<metadata>
Created by potrace 1.15, written by Peter Selinger 2001-2017
</metadata>
<g transform="translate(0.000000,64.000000) scale(0.100000,-0.100000)"
fill="#000000" stroke="none">
<path d="M45 567 c-3 -7 -4 -127 -3 -267 l3 -255 185 0 185 0 3 37 3 36 -100
4 c-132 4 -136 8 -136 128 0 120 4 124 135 128 90 4 100 6 100 23 0 16 -7 19
-50 19 -71 0 -90 21 -90 100 l0 60 -115 0 c-84 0 -117 -3 -120 -13z"/>
<path d="M204 347 c-2 -7 -3 -56 -2 -108 l3 -94 205 0 205 0 0 105 0 105 -203
3 c-162 2 -203 0 -208 -11z"/>
</g>
</svg>
